# xmcd
#
# Track frame offsets: 
#        183
#        17578
#        30693
#        42283
#        60623
#        80155
#        93903
#        106958
#        121123
#        133143
#        154455
#        171158
#        184913
#        196500
#        210373
#        224050
#        241753
#        258615
#
# Disc length: 3619 seconds
#
# Revision: 3
# Processed by: cddbd v1.5.2PL0 Copyright (c) Steve Scherf et al.
# Submitted via: ExactAudioCopy v0.99pb5
#
DISCID=fa0e2112
DTITLE=Dr. Hook - Dr. Hook - Volume 2 - The Country Store Collection
DYEAR=1988
DGENRE=Country
TTITLE0=Sylvia's Mother
TTITLE1=The Cover Of Rolling Stone
TTITLE2=Sing Me A Rainbow
TTITLE3=Kiss It Away
TTITLE4=Carry Me Carrie
TTITLE5=When She Cries
TTITLE6=Penicillin Penny
TTITLE7=Turn On The World
TTITLE8=Marie Laveux
TTITLE9=The Queen Of The Silver Dollar
TTITLE10=Judy
TTITLE11=Life Ain't Easy
TTITLE12=Mama I'll Sing One Song For You
TTITLE13=Roland The Roadie And Gertrude The Groupie
TTITLE14=I Call That True Love
TTITLE15=The Ballad Of Lucy Jordan
TTITLE16=The Wonderful Soup Stone
TTITLE17=Makin' It Natural
EXTD=
EXTT0=
EXTT1=
EXTT2=
EXTT3=
EXTT4=
EXTT5=
EXTT6=
EXTT7=
EXTT8=
EXTT9=
EXTT10=
EXTT11=
EXTT12=
EXTT13=
EXTT14=
EXTT15=
EXTT16=
EXTT17=
PLAYORDER=
